<?xml version="1.0" encoding="utf-8"?>
<!-- Generator: Adobe Illustrator 17.0.0, SVG Export Plug-In . SVG Version: 6.00 Build 0)  -->
<!DOCTYPE svg PUBLIC "-//W3C//DTD SVG 1.1//EN" "http://www.w3.org/Graphics/SVG/1.1/DTD/svg11.dtd">
<svg version="1.1" id="Layer_1" xmlns="http://www.w3.org/2000/svg" xmlns:xlink="http://www.w3.org/1999/xlink" x="0px" y="0px"
	 width="170.079px" height="79.37px" viewBox="0 0 170.079 79.37" enable-background="new 0 0 170.079 79.37" xml:space="preserve">
<g id="Layer_2">
</g>
<g id="Layer_1_1_">
	<path fill="#F37021" d="M27.533,49.229c0,3.851-3.14,7.002-6.978,7.002H9.818c-3.838,0-6.978-3.151-6.978-7.002V38.455
		c0-3.851,3.14-7.002,6.978-7.002h10.737c3.838,0,6.978,3.151,6.978,7.002V49.229z"/>
	<path fill="#0072BC" d="M27.533,49.229c0,3.851-3.14,7.002-6.978,7.002H9.818c-3.838,0-6.978-3.151-6.978-7.002V38.455
		c0-3.851,3.14-7.002,6.978-7.002h10.737c3.838,0,6.978,3.151,6.978,7.002V49.229z"/>
	<path fill="#94357A" d="M55.443,49.229c0,3.851-3.14,7.002-6.978,7.002H37.728c-3.838,0-6.978-3.151-6.978-7.002V38.455
		c0-3.851,3.14-7.002,6.978-7.002h10.737c3.838,0,6.978,3.151,6.978,7.002V49.229z"/>
	<path fill="#F37021" d="M83.354,49.229c0,3.851-3.14,7.002-6.978,7.002H65.639c-3.838,0-6.978-3.151-6.978-7.002V38.455
		c0-3.851,3.14-7.002,6.978-7.002h10.737c3.838,0,6.978,3.151,6.978,7.002V49.229z"/>
	<path fill="#A2550B" d="M111.264,49.229c0,3.851-3.14,7.002-6.978,7.002H93.55c-3.838,0-6.978-3.151-6.978-7.002V38.455
		c0-3.851,3.14-7.002,6.978-7.002h10.737c3.838,0,6.978,3.151,6.978,7.002L111.264,49.229L111.264,49.229z"/>
	<path fill="#FFCB05" d="M139.175,49.229c0,3.851-3.14,7.002-6.978,7.002H121.46c-3.838,0-6.978-3.151-6.978-7.002V38.455
		c0-3.851,3.14-7.002,6.978-7.002h10.737c3.838,0,6.978,3.151,6.978,7.002V49.229z"/>
	<path fill="#ED1C24" d="M167.085,49.229c0,3.851-3.14,7.002-6.978,7.002H149.37c-3.838,0-6.978-3.151-6.978-7.002V38.455
		c0-3.851,3.14-7.002,6.978-7.002h10.737c3.838,0,6.978,3.151,6.978,7.002V49.229z"/>
	<g>
		<path fill="#FFFFFF" d="M12.086,13.373c-1.643,4.459-3.825,7.838-6.523,10.185l-1.432-1.22c2.815-2.37,4.904-5.585,6.313-9.622
			L12.086,13.373z M24.994,8.656v1.643H4.155V8.656H24.994z M17.132,6.52l-1.244,1.244c-1.126-1.291-2.675-2.652-4.67-4.107
			l1.174-1.103C14.269,3.869,15.841,5.207,17.132,6.52z M24.736,22.666l-1.502,1.033c-1.502-3.051-3.567-6.454-6.172-10.208
			l1.455-0.916C21.239,16.424,23.304,19.803,24.736,22.666z"/>
		<path fill="#FFFFFF" d="M32.663,12.059l-1.149,1.15c-0.939-1.103-2.229-2.276-3.92-3.521l1.15-1.103
			C30.293,9.759,31.608,10.909,32.663,12.059z M32.922,15.485c-1.033,2.957-2.206,5.726-3.497,8.331l-1.572-0.704
			c1.408-2.675,2.604-5.397,3.614-8.19L32.922,15.485z M33.391,6.427l-1.149,1.15C31.208,6.45,29.8,5.23,28.017,3.939l1.15-1.103
			C30.833,4.056,32.242,5.253,33.391,6.427z M41.088,7.037c0.282-0.728,0.493-1.455,0.657-2.206H36.09v6.83
			c-0.094,5.069-0.986,9.152-2.676,12.203l-1.267-1.126c1.454-2.652,2.229-6.336,2.3-11.077V3.305h14.08V4.83H43.34
			c-0.164,0.775-0.375,1.502-0.633,2.206h4.576v8.237h-3.896v6.642c0,1.267-0.634,1.901-1.854,1.901h-1.972l-0.352-1.525
			c0.61,0.07,1.197,0.117,1.76,0.117c0.517,0,0.798-0.305,0.798-0.892v-6.243h-4.013V7.037H41.088z M39.845,17.269
			c-0.61,2.065-1.455,3.872-2.535,5.397l-1.36-0.845c1.103-1.479,1.9-3.098,2.394-4.881L39.845,17.269z M45.783,10.534v-2.16h-6.524
			v2.159h6.524V10.534z M45.783,11.801h-6.524v2.112h6.524C45.783,13.913,45.783,11.801,45.783,11.801z M48.833,22.009l-1.432,0.634
			c-0.751-2.018-1.596-3.778-2.487-5.327l1.407-0.493C47.284,18.442,48.129,20.179,48.833,22.009z"/>
		<path fill="#FFFFFF" d="M58.991,20.273c-1.831,1.314-4.107,2.394-6.829,3.262l-0.681-1.408c2.651-0.751,4.834-1.713,6.548-2.934
			L58.991,20.273z M61.033,3.962V2.32h1.689v1.643h8.19v1.385h-8.19v1.596h7.204v1.338h-7.204v1.596h9.223v1.432H61.314
			c-1.385,1.08-2.77,1.948-4.178,2.605c2.089-0.071,4.178-0.141,6.243-0.235c0.985-0.54,1.971-1.103,2.934-1.689l1.313,0.845
			c-3.402,1.971-6.829,3.473-10.255,4.553c2.815-0.094,6.242-0.305,10.278-0.634c-0.539-0.563-1.103-1.126-1.713-1.689l1.15-0.728
			c1.807,1.666,3.191,3.121,4.13,4.365l-1.196,0.822c-0.423-0.563-0.869-1.103-1.338-1.643c-2.229,0.165-4.201,0.305-5.891,0.399
			v3.755c0,1.244-0.634,1.877-1.854,1.877h-2.229l-0.328-1.502c0.704,0.047,1.361,0.094,2.019,0.094
			c0.492,0,0.751-0.282,0.751-0.845v-3.285c-2.417,0.117-4.295,0.188-5.609,0.188l-1.971,0.07l-0.329-1.408l0.915,0.094
			c2.348-0.61,4.671-1.455,6.971-2.511c-1.972,0.07-4.061,0.141-6.267,0.235l-0.305-1.244c0.328-0.047,0.657-0.117,0.962-0.258
			c1.08-0.375,2.37-1.126,3.825-2.229h-7.604V9.876h9.294V8.281h-7.299V6.943h7.299V5.347h-8.284V3.962H61.033z M72.156,22.314
			l-0.845,1.291c-2.183-1.384-4.412-2.487-6.712-3.285l0.821-1.197C67.862,20.015,70.115,21.071,72.156,22.314z"/>
		<path fill="#FFFFFF" d="M86.068,2.437c2.98,3.286,6.407,5.867,10.279,7.745l-0.915,1.619c-3.896-1.995-7.205-4.623-9.974-7.862
			c-2.535,3.051-5.891,5.679-10.068,7.885l-0.892-1.619c4.131-2.065,7.58-4.67,10.35-7.768C84.848,2.437,86.068,2.437,86.068,2.437z
			 M86.984,8.633v5.28h6.406v1.619h-6.406v5.773h8.096v1.643H75.554v-1.643h3.544v-9.293h1.666v9.293h4.506V8.633H86.984z"/>
		<path fill="#FFFFFF" d="M107.395,2.602v18.657h3.333V2.602h1.713v18.657h7.04v1.643H98.689v-1.643h6.993V2.602H107.395z
			 M103.992,17.738l-1.549,0.399c-0.845-3.755-1.901-7.369-3.168-10.842l1.431-0.469C101.927,9.994,103.031,13.631,103.992,17.738z
			 M118.848,7.295c-0.939,4.083-2.112,7.65-3.544,10.725l-1.525-0.54c1.361-2.769,2.558-6.313,3.567-10.607L118.848,7.295z"/>
		<path fill="#FFFFFF" d="M123.701,8.069l-1.479-0.938c1.408-1.455,2.44-3.098,3.098-4.881l1.619,0.352
			c-0.188,0.516-0.399,0.985-0.587,1.455h6.29v1.479H128.7c0.517,0.704,0.963,1.385,1.291,2.019l-1.549,0.586
			c-0.423-0.892-0.938-1.76-1.525-2.605h-1.338C125.015,6.45,124.406,7.295,123.701,8.069z M142.663,13.044h-1.643v-2.792h-16.615
			v2.792h-1.644V8.797h9.294c-0.235-0.563-0.47-1.056-0.728-1.525l1.643-0.282l-0.141-0.094c1.126-1.408,1.924-2.934,2.44-4.623
			l1.619,0.352c-0.164,0.493-0.328,0.962-0.517,1.431h6.783v1.479h-4.178c0.493,0.657,0.892,1.268,1.174,1.831l-1.502,0.563
			c-0.423-0.845-0.916-1.643-1.479-2.394h-1.479c-0.423,0.798-0.916,1.549-1.432,2.253l-1.268-0.774
			c0.258,0.54,0.517,1.126,0.751,1.784h8.918v4.246H142.663z M139.425,16.236h-11.711v1.619h12.79v6.031h-1.666v-0.985h-11.124
			v0.962h-1.689V11.637h13.4L139.425,16.236L139.425,16.236z M137.782,14.875v-1.877h-10.067v1.877H137.782z M138.838,21.399v-2.183
			h-11.124v2.183H138.838z"/>
		<path fill="#FFFFFF" d="M148.643,11.073V5.511h-2.886V3.916h7.485v1.596h-2.862v5.562h2.581v1.619h-2.581v5.328
			c0.892-0.305,1.736-0.634,2.581-1.009v1.643c-2.159,0.892-4.482,1.643-6.97,2.253l-0.423-1.619
			c1.033-0.188,2.065-0.422,3.074-0.704v-5.891h-2.558v-1.619h2.559V11.073z M165.845,3.305v10.842h-4.881v2.77h5.28v1.596h-5.28
			v3.051h6.148v1.619h-14.128v-1.619h6.29v-3.051h-5.305v-1.596h5.305v-2.77h-4.905V3.305H165.845z M159.275,7.999V4.807h-3.286
			v3.192H159.275z M159.275,9.478h-3.286v3.168h3.286V9.478z M160.964,7.999h3.262V4.807h-3.262V7.999z M164.226,9.478h-3.262v3.168
			h3.262V9.478z"/>
	</g>
	<g>
		<path fill="#FFFFFF" d="M11.048,65.314H9.451c-0.226-1.054-0.873-1.566-1.958-1.566c-0.753,0-1.34,0.361-1.776,1.099
			c-0.438,0.693-0.648,1.551-0.648,2.605c0,0.045,0,0.105,0.016,0.196h0.061c0.301-0.482,0.678-0.828,1.145-1.054
			c0.421-0.226,0.918-0.331,1.49-0.331c1.055,0,1.898,0.331,2.53,0.994c0.618,0.678,0.934,1.551,0.934,2.605
			c0,1.069-0.361,1.958-1.069,2.651c-0.723,0.693-1.626,1.054-2.681,1.054c-1.325,0-2.319-0.482-3.012-1.446
			c-0.663-0.919-0.994-2.199-0.994-3.84c0-1.747,0.347-3.163,1.069-4.247c0.723-1.1,1.717-1.642,2.952-1.642
			C9.587,62.393,10.777,63.357,11.048,65.314z M5.852,68.221C5.46,68.643,5.265,69.2,5.265,69.908c0,0.693,0.195,1.25,0.603,1.671
			c0.392,0.422,0.919,0.633,1.566,0.633c0.662,0,1.189-0.226,1.581-0.663c0.406-0.452,0.617-1.009,0.617-1.687
			c0-0.693-0.195-1.25-0.587-1.642c-0.392-0.421-0.934-0.632-1.597-0.632C6.771,67.589,6.243,67.8,5.852,68.221z"/>
		<path fill="#FFFFFF" d="M18.703,66.655c0.603,0.783,0.919,1.867,0.934,3.253h-5.903c0.061,0.753,0.256,1.34,0.617,1.747
			c0.361,0.392,0.858,0.602,1.491,0.602c0.558,0,1.009-0.135,1.355-0.392c0.271-0.21,0.497-0.557,0.708-1.009h1.596
			c-0.181,0.723-0.526,1.34-1.068,1.822c-0.678,0.587-1.536,0.889-2.576,0.889c-1.145,0-2.062-0.361-2.726-1.069
			c-0.723-0.753-1.084-1.762-1.084-3.042c0-1.16,0.331-2.124,1.023-2.906c0.663-0.798,1.582-1.19,2.727-1.19
			C17.062,65.36,18.041,65.782,18.703,66.655z M14.411,67.197c-0.331,0.346-0.558,0.843-0.647,1.506h4.201
			c-0.15-1.355-0.858-2.033-2.123-2.033C15.24,66.67,14.773,66.836,14.411,67.197z"/>
		<path fill="#FFFFFF" d="M22.416,62.393v10.964H20.82V62.393H22.416z"/>
		<path fill="#FFFFFF" d="M30.264,66.655c0.603,0.783,0.919,1.867,0.934,3.253h-5.903c0.061,0.753,0.256,1.34,0.617,1.747
			c0.361,0.392,0.858,0.602,1.491,0.602c0.558,0,1.009-0.135,1.355-0.392c0.271-0.21,0.497-0.557,0.708-1.009h1.596
			c-0.181,0.723-0.526,1.34-1.068,1.822c-0.678,0.587-1.536,0.889-2.576,0.889c-1.145,0-2.062-0.361-2.726-1.069
			c-0.723-0.753-1.084-1.762-1.084-3.042c0-1.16,0.331-2.124,1.023-2.906c0.663-0.798,1.582-1.19,2.727-1.19
			C28.622,65.36,29.602,65.782,30.264,66.655z M25.972,67.197c-0.331,0.346-0.558,0.843-0.647,1.506h4.201
			c-0.15-1.355-0.858-2.033-2.123-2.033C26.8,66.67,26.333,66.836,25.972,67.197z"/>
		<path fill="#FFFFFF" d="M38.463,66.67c0.346-0.482,0.723-0.828,1.114-1.024c0.361-0.196,0.798-0.286,1.325-0.286
			c0.798,0,1.461,0.256,1.988,0.798c0.512,0.527,0.783,1.22,0.783,2.093v5.105h-1.597v-4.834c0-0.632-0.136-1.099-0.406-1.385
			c-0.27-0.301-0.722-0.437-1.325-0.437c-0.451,0-0.812,0.166-1.114,0.497c-0.301,0.331-0.451,0.798-0.451,1.371v4.789h-1.597
			v-4.819c0-1.235-0.542-1.837-1.597-1.837c-0.512,0-0.934,0.196-1.234,0.587c-0.332,0.376-0.482,0.843-0.482,1.386v4.684h-1.597
			v-7.786h1.597v0.858c0.633-0.723,1.355-1.069,2.139-1.069C37.153,65.36,37.981,65.796,38.463,66.67z"/>
		<path fill="#FFFFFF" d="M51.419,66.655c0.603,0.783,0.919,1.867,0.934,3.253H46.45c0.061,0.753,0.256,1.34,0.617,1.747
			c0.361,0.392,0.858,0.602,1.491,0.602c0.558,0,1.009-0.135,1.355-0.392c0.271-0.21,0.497-0.557,0.708-1.009h1.596
			c-0.181,0.723-0.526,1.34-1.068,1.822c-0.678,0.587-1.537,0.889-2.576,0.889c-1.145,0-2.062-0.361-2.726-1.069
			c-0.723-0.753-1.084-1.762-1.084-3.042c0-1.16,0.331-2.124,1.023-2.906c0.663-0.798,1.582-1.19,2.727-1.19
			C49.778,65.36,50.757,65.782,51.419,66.655z M47.127,67.197c-0.331,0.346-0.558,0.843-0.647,1.506h4.201
			c-0.15-1.355-0.858-2.033-2.123-2.033C47.955,66.67,47.489,66.836,47.127,67.197z"/>
		<path fill="#FFFFFF" d="M60.282,68.553v4.804h-1.596v-4.669c0-1.325-0.618-1.988-1.822-1.988c-0.452,0-0.859,0.151-1.19,0.482
			c-0.361,0.361-0.587,0.858-0.647,1.491v4.684H53.43v-7.786h1.597v0.964c0.301-0.392,0.647-0.678,1.039-0.874
			c0.392-0.211,0.828-0.301,1.311-0.301C59.303,65.36,60.282,66.414,60.282,68.553z"/>
		<path fill="#FFFFFF" d="M64.008,65.571h1.776v1.325h-1.776v4.518c0,0.211,0.045,0.361,0.135,0.467
			c0.091,0.09,0.227,0.151,0.422,0.151h1.024v1.325h-1.28c-0.663,0-1.16-0.181-1.461-0.527c-0.301-0.331-0.437-0.798-0.437-1.416
			v-4.518h-1.446v-1.325h1.446v-1.853l1.597-0.663V65.571z"/>
		<path fill="#FFFFFF" d="M72.953,67.815h-1.552c-0.12-0.422-0.301-0.708-0.558-0.874c-0.271-0.181-0.692-0.271-1.234-0.271
			c-0.482,0-0.844,0.061-1.084,0.211c-0.287,0.151-0.422,0.392-0.422,0.693c0,0.271,0.211,0.497,0.632,0.693
			c0.271,0.121,0.783,0.271,1.566,0.467c0.889,0.211,1.552,0.467,1.974,0.738c0.617,0.392,0.934,0.934,0.934,1.626
			c0,1.642-1.16,2.47-3.464,2.47c-2.139,0-3.283-0.919-3.464-2.726h1.566c0.09,0.527,0.286,0.904,0.557,1.115
			c0.271,0.195,0.693,0.301,1.295,0.301c1.235,0,1.868-0.361,1.868-1.054c0-0.376-0.241-0.678-0.693-0.888
			c-0.24-0.121-0.768-0.271-1.566-0.452c-0.918-0.211-1.565-0.437-1.928-0.678c-0.602-0.376-0.903-0.903-0.903-1.566
			c0-0.708,0.286-1.265,0.874-1.657c0.587-0.407,1.355-0.603,2.289-0.603C71.658,65.36,72.772,66.173,72.953,67.815z"/>
		<path fill="#FFFFFF" d="M80.914,62.604l3.75,8.614h0.045l3.735-8.614h1.942v10.753h-1.642v-7.681h-0.06l-3.299,7.681H83.97
			l-3.299-7.681h-0.06v7.681h-1.642V62.604H80.914z"/>
		<path fill="#FFFFFF" d="M98.034,66.218c0.468,0.497,0.708,1.22,0.708,2.169v4.97h-1.476v-1.1c-0.301,0.392-0.678,0.708-1.13,0.934
			c-0.512,0.241-1.114,0.376-1.807,0.376c-0.813,0-1.446-0.211-1.897-0.618c-0.497-0.407-0.738-0.934-0.738-1.581
			c0-0.874,0.347-1.551,1.039-2.018c0.633-0.452,1.536-0.678,2.681-0.708l1.747-0.045v-0.316c0-1.084-0.587-1.626-1.762-1.626
			c-0.497,0-0.904,0.09-1.205,0.271c-0.361,0.211-0.588,0.527-0.678,0.964l-1.581-0.136c0.165-0.843,0.587-1.476,1.25-1.867
			c0.572-0.362,1.355-0.527,2.319-0.527C96.65,65.36,97.492,65.646,98.034,66.218z M95.52,69.803
			c-1.461,0.03-2.184,0.542-2.184,1.506c0,0.301,0.12,0.542,0.376,0.738c0.241,0.196,0.572,0.301,0.979,0.301
			c0.678,0,1.25-0.21,1.731-0.617c0.482-0.407,0.738-0.919,0.738-1.521v-0.452L95.52,69.803z"/>
		<path fill="#FFFFFF" d="M107.111,68.553v4.804h-1.596v-4.669c0-1.325-0.618-1.988-1.823-1.988c-0.451,0-0.858,0.151-1.189,0.482
			c-0.361,0.361-0.587,0.858-0.647,1.491v4.684h-1.597v-7.786h1.597v0.964c0.301-0.392,0.647-0.678,1.039-0.874
			c0.392-0.211,0.828-0.301,1.311-0.301C106.132,65.36,107.111,66.414,107.111,68.553z"/>
		<path fill="#FFFFFF" d="M114.582,66.218c0.468,0.497,0.708,1.22,0.708,2.169v4.97h-1.476v-1.1
			c-0.301,0.392-0.678,0.708-1.13,0.934c-0.512,0.241-1.114,0.376-1.807,0.376c-0.813,0-1.446-0.211-1.897-0.618
			c-0.497-0.407-0.738-0.934-0.738-1.581c0-0.874,0.347-1.551,1.039-2.018c0.633-0.452,1.536-0.678,2.681-0.708l1.747-0.045v-0.316
			c0-1.084-0.587-1.626-1.762-1.626c-0.497,0-0.904,0.09-1.205,0.271c-0.361,0.211-0.588,0.527-0.678,0.964l-1.581-0.136
			c0.165-0.843,0.587-1.476,1.25-1.867c0.572-0.362,1.355-0.527,2.319-0.527C113.198,65.36,114.04,65.646,114.582,66.218z
			 M112.068,69.803c-1.461,0.03-2.184,0.542-2.184,1.506c0,0.301,0.12,0.542,0.376,0.738c0.241,0.196,0.572,0.301,0.979,0.301
			c0.678,0,1.25-0.21,1.731-0.617c0.482-0.407,0.738-0.919,0.738-1.521v-0.452L112.068,69.803z"/>
		<path fill="#FFFFFF" d="M122.367,66.61v-1.039h1.596v7.274c0,2.47-1.22,3.705-3.629,3.705c-1.085,0-1.913-0.211-2.485-0.618
			c-0.572-0.421-0.919-1.054-1.069-1.913h1.597c0.09,0.452,0.271,0.783,0.572,0.979c0.286,0.181,0.753,0.286,1.386,0.286
			c1.355,0,2.033-0.738,2.033-2.199V71.88c-0.572,0.858-1.355,1.295-2.38,1.295c-1.055,0-1.913-0.361-2.561-1.069
			c-0.662-0.708-0.979-1.642-0.979-2.816s0.316-2.108,0.979-2.831c0.647-0.738,1.506-1.1,2.561-1.1
			C121.012,65.36,121.795,65.767,122.367,66.61z M118.662,67.363c-0.392,0.452-0.572,1.1-0.572,1.928
			c0,0.753,0.15,1.355,0.452,1.792c0.346,0.512,0.903,0.783,1.687,0.783c0.678,0,1.205-0.226,1.596-0.678
			c0.362-0.467,0.558-1.099,0.558-1.897c0-0.813-0.195-1.461-0.558-1.928c-0.391-0.482-0.918-0.708-1.596-0.708
			S119.024,66.881,118.662,67.363z"/>
		<path fill="#FFFFFF" d="M131.719,66.655c0.603,0.783,0.919,1.867,0.934,3.253h-5.903c0.061,0.753,0.256,1.34,0.617,1.747
			c0.361,0.392,0.858,0.602,1.491,0.602c0.558,0,1.009-0.135,1.355-0.392c0.271-0.21,0.497-0.557,0.708-1.009h1.596
			c-0.181,0.723-0.526,1.34-1.068,1.822c-0.678,0.587-1.536,0.889-2.576,0.889c-1.145,0-2.062-0.361-2.726-1.069
			c-0.723-0.753-1.084-1.762-1.084-3.042c0-1.16,0.331-2.124,1.023-2.906c0.663-0.798,1.582-1.19,2.727-1.19
			C130.077,65.36,131.057,65.782,131.719,66.655z M127.427,67.197c-0.331,0.346-0.558,0.843-0.647,1.506h4.201
			c-0.15-1.355-0.858-2.033-2.123-2.033C128.255,66.67,127.788,66.836,127.427,67.197z"/>
		<path fill="#FFFFFF" d="M139.919,66.67c0.346-0.482,0.723-0.828,1.114-1.024c0.361-0.196,0.798-0.286,1.325-0.286
			c0.798,0,1.461,0.256,1.988,0.798c0.512,0.527,0.783,1.22,0.783,2.093v5.105h-1.597v-4.834c0-0.632-0.136-1.099-0.406-1.385
			c-0.271-0.301-0.724-0.437-1.326-0.437c-0.451,0-0.812,0.166-1.114,0.497c-0.301,0.331-0.451,0.798-0.451,1.371v4.789h-1.597
			v-4.819c0-1.235-0.542-1.837-1.597-1.837c-0.512,0-0.934,0.196-1.234,0.587c-0.332,0.376-0.482,0.843-0.482,1.386v4.684h-1.597
			v-7.786h1.597v0.858c0.633-0.723,1.355-1.069,2.139-1.069C138.609,65.36,139.437,65.796,139.919,66.67z"/>
		<path fill="#FFFFFF" d="M152.874,66.655c0.603,0.783,0.919,1.867,0.934,3.253h-5.903c0.061,0.753,0.256,1.34,0.617,1.747
			c0.361,0.392,0.858,0.602,1.491,0.602c0.558,0,1.009-0.135,1.355-0.392c0.271-0.21,0.497-0.557,0.708-1.009h1.596
			c-0.181,0.723-0.526,1.34-1.068,1.822c-0.678,0.587-1.537,0.889-2.576,0.889c-1.145,0-2.062-0.361-2.726-1.069
			c-0.723-0.753-1.084-1.762-1.084-3.042c0-1.16,0.331-2.124,1.023-2.906c0.663-0.798,1.582-1.19,2.727-1.19
			C151.233,65.36,152.212,65.782,152.874,66.655z M148.582,67.197c-0.331,0.346-0.558,0.843-0.647,1.506h4.201
			c-0.15-1.355-0.858-2.033-2.123-2.033C149.41,66.67,148.944,66.836,148.582,67.197z"/>
		<path fill="#FFFFFF" d="M161.737,68.553v4.804h-1.596v-4.669c0-1.325-0.618-1.988-1.822-1.988c-0.452,0-0.859,0.151-1.19,0.482
			c-0.361,0.361-0.587,0.858-0.647,1.491v4.684h-1.597v-7.786h1.597v0.964c0.301-0.392,0.647-0.678,1.039-0.874
			c0.392-0.211,0.828-0.301,1.311-0.301C160.758,65.36,161.737,66.414,161.737,68.553z"/>
		<path fill="#FFFFFF" d="M165.463,65.571h1.776v1.325h-1.776v4.518c0,0.211,0.045,0.361,0.135,0.467
			c0.091,0.09,0.227,0.151,0.422,0.151h1.024v1.325h-1.28c-0.663,0-1.16-0.181-1.461-0.527c-0.301-0.331-0.437-0.798-0.437-1.416
			v-4.518h-1.446v-1.325h1.446v-1.853l1.597-0.663V65.571z"/>
	</g>
</g>
<g id="Layer_3">
</g>
<g id="Layer_4">
</g>
</svg>
